<mxfile host="app.diagrams.net" modified="2023-09-01T17:30:56.499Z" agent="Mozilla/5.0 (Windows NT 10.0; Win64; x64) AppleWebKit/537.36 (KHTML, like Gecko) Chrome/116.0.0.0 Safari/537.36" etag="arqBB-JkXWDQ1GM2B-Er" version="21.7.2" type="device">
  <diagram name="Страница — 1" id="2Q3IhjSLfzELNbrJtqsr">
    <mxGraphModel dx="1434" dy="1927" grid="1" gridSize="10" guides="1" tooltips="1" connect="1" arrows="1" fold="1" page="1" pageScale="1" pageWidth="827" pageHeight="1169" math="0" shadow="0">
      <root>
        <mxCell id="0" />
        <mxCell id="1" parent="0" />
        <mxCell id="Ikadetjm3nNki8M43ZyB-2" value="biblio_communication_dia_1_take_away" style="text;align=center;fontStyle=1;verticalAlign=middle;spacingLeft=3;spacingRight=3;strokeColor=none;rotatable=0;points=[[0,0.5],[1,0.5]];portConstraint=eastwest;html=1;fontSize=20;fontFamily=Architects Daughter;" vertex="1" parent="1">
          <mxGeometry x="360" y="-110" width="80" height="26" as="geometry" />
        </mxCell>
        <mxCell id="Ikadetjm3nNki8M43ZyB-14" value="2.2 определить тип&lt;br style=&quot;border-color: var(--border-color);&quot;&gt;книги (выдача/зал)" style="edgeStyle=orthogonalEdgeStyle;rounded=0;sketch=1;hachureGap=4;jiggle=2;curveFitting=1;orthogonalLoop=1;jettySize=auto;html=1;fontFamily=Architects Daughter;fontSource=https%3A%2F%2Ffonts.googleapis.com%2Fcss%3Ffamily%3DArchitects%2BDaughter;fontSize=16;startArrow=block;startFill=1;" edge="1" parent="1" source="Ikadetjm3nNki8M43ZyB-3" target="Ikadetjm3nNki8M43ZyB-8">
          <mxGeometry x="-0.3684" relative="1" as="geometry">
            <Array as="points">
              <mxPoint x="200" y="620" />
              <mxPoint x="200" y="620" />
            </Array>
            <mxPoint as="offset" />
          </mxGeometry>
        </mxCell>
        <mxCell id="Ikadetjm3nNki8M43ZyB-19" value="2.3 сообщить о наличии &lt;br&gt;книги и методах работы" style="edgeStyle=orthogonalEdgeStyle;rounded=0;sketch=1;hachureGap=4;jiggle=2;curveFitting=1;orthogonalLoop=1;jettySize=auto;html=1;entryX=0.225;entryY=1.017;entryDx=0;entryDy=0;entryPerimeter=0;fontFamily=Architects Daughter;fontSource=https%3A%2F%2Ffonts.googleapis.com%2Fcss%3Ffamily%3DArchitects%2BDaughter;fontSize=16;" edge="1" parent="1" source="Ikadetjm3nNki8M43ZyB-3" target="Ikadetjm3nNki8M43ZyB-4">
          <mxGeometry x="-0.111" relative="1" as="geometry">
            <Array as="points">
              <mxPoint x="210" y="145" />
              <mxPoint x="211" y="145" />
            </Array>
            <mxPoint as="offset" />
          </mxGeometry>
        </mxCell>
        <mxCell id="Ikadetjm3nNki8M43ZyB-22" value="2.5 определить &lt;br&gt;местоположение книги" style="edgeStyle=orthogonalEdgeStyle;rounded=0;sketch=1;hachureGap=4;jiggle=2;curveFitting=1;orthogonalLoop=1;jettySize=auto;html=1;entryX=0.372;entryY=0;entryDx=0;entryDy=0;entryPerimeter=0;fontFamily=Architects Daughter;fontSource=https%3A%2F%2Ffonts.googleapis.com%2Fcss%3Ffamily%3DArchitects%2BDaughter;fontSize=16;exitX=0.382;exitY=0.975;exitDx=0;exitDy=0;exitPerimeter=0;startArrow=block;startFill=1;" edge="1" parent="1" source="Ikadetjm3nNki8M43ZyB-3" target="Ikadetjm3nNki8M43ZyB-8">
          <mxGeometry relative="1" as="geometry">
            <Array as="points">
              <mxPoint x="330" y="550" />
              <mxPoint x="333" y="550" />
            </Array>
          </mxGeometry>
        </mxCell>
        <mxCell id="Ikadetjm3nNki8M43ZyB-23" value="2.1 определить&lt;br style=&quot;border-color: var(--border-color);&quot;&gt;наличие книги" style="edgeStyle=orthogonalEdgeStyle;rounded=0;sketch=1;hachureGap=4;jiggle=2;curveFitting=1;orthogonalLoop=1;jettySize=auto;html=1;entryX=0.041;entryY=-0.012;entryDx=0;entryDy=0;entryPerimeter=0;fontFamily=Architects Daughter;fontSource=https%3A%2F%2Ffonts.googleapis.com%2Fcss%3Ffamily%3DArchitects%2BDaughter;fontSize=16;exitX=0.054;exitY=1;exitDx=0;exitDy=0;exitPerimeter=0;" edge="1" parent="1" source="Ikadetjm3nNki8M43ZyB-3" target="Ikadetjm3nNki8M43ZyB-8">
          <mxGeometry x="-0.7998" relative="1" as="geometry">
            <mxPoint x="-69" y="310" as="sourcePoint" />
            <mxPoint x="-60.24000000000001" y="599.04" as="targetPoint" />
            <Array as="points">
              <mxPoint x="81" y="590" />
              <mxPoint x="81" y="590" />
            </Array>
            <mxPoint as="offset" />
          </mxGeometry>
        </mxCell>
        <mxCell id="Ikadetjm3nNki8M43ZyB-24" value="2.6 сообщить&lt;br&gt;местоположение&amp;nbsp;&lt;br&gt;книги" style="edgeStyle=orthogonalEdgeStyle;rounded=0;sketch=1;hachureGap=4;jiggle=2;curveFitting=1;orthogonalLoop=1;jettySize=auto;html=1;entryX=0.5;entryY=1;entryDx=0;entryDy=0;fontFamily=Architects Daughter;fontSource=https%3A%2F%2Ffonts.googleapis.com%2Fcss%3Ffamily%3DArchitects%2BDaughter;fontSize=16;" edge="1" parent="1" source="Ikadetjm3nNki8M43ZyB-3" target="Ikadetjm3nNki8M43ZyB-4">
          <mxGeometry x="-0.1111" relative="1" as="geometry">
            <mxPoint as="offset" />
          </mxGeometry>
        </mxCell>
        <mxCell id="Ikadetjm3nNki8M43ZyB-3" value="Библиотекарь" style="html=1;whiteSpace=wrap;sketch=1;hachureGap=4;jiggle=2;curveFitting=1;fontFamily=Architects Daughter;fontSource=https%3A%2F%2Ffonts.googleapis.com%2Fcss%3Ffamily%3DArchitects%2BDaughter;fontSize=20;" vertex="1" parent="1">
          <mxGeometry x="40" y="320" width="760" height="40" as="geometry" />
        </mxCell>
        <mxCell id="Ikadetjm3nNki8M43ZyB-6" value="1.1 запросить&amp;nbsp;&lt;br&gt;искомую книгу" style="edgeStyle=orthogonalEdgeStyle;rounded=0;sketch=1;hachureGap=4;jiggle=2;curveFitting=1;orthogonalLoop=1;jettySize=auto;html=1;fontFamily=Architects Daughter;fontSource=https%3A%2F%2Ffonts.googleapis.com%2Fcss%3Ffamily%3DArchitects%2BDaughter;fontSize=16;exitX=0.051;exitY=1.067;exitDx=0;exitDy=0;exitPerimeter=0;entryX=0.059;entryY=0.075;entryDx=0;entryDy=0;entryPerimeter=0;" edge="1" parent="1" source="Ikadetjm3nNki8M43ZyB-4" target="Ikadetjm3nNki8M43ZyB-3">
          <mxGeometry x="-0.6537" y="15" relative="1" as="geometry">
            <Array as="points">
              <mxPoint x="85" y="144" />
            </Array>
            <mxPoint as="offset" />
          </mxGeometry>
        </mxCell>
        <mxCell id="Ikadetjm3nNki8M43ZyB-21" value="2.4 сообщить о &lt;br&gt;намерении взять книгу" style="edgeStyle=orthogonalEdgeStyle;rounded=0;sketch=1;hachureGap=4;jiggle=2;curveFitting=1;orthogonalLoop=1;jettySize=auto;html=1;entryX=0.37;entryY=0.025;entryDx=0;entryDy=0;entryPerimeter=0;fontFamily=Architects Daughter;fontSource=https%3A%2F%2Ffonts.googleapis.com%2Fcss%3Ffamily%3DArchitects%2BDaughter;fontSize=16;" edge="1" parent="1" source="Ikadetjm3nNki8M43ZyB-4" target="Ikadetjm3nNki8M43ZyB-3">
          <mxGeometry x="-0.6707" relative="1" as="geometry">
            <Array as="points">
              <mxPoint x="320" y="230" />
              <mxPoint x="321" y="230" />
            </Array>
            <mxPoint as="offset" />
          </mxGeometry>
        </mxCell>
        <mxCell id="Ikadetjm3nNki8M43ZyB-27" value="3.1 обратиться к местоположению" style="edgeStyle=orthogonalEdgeStyle;rounded=0;sketch=1;hachureGap=4;jiggle=2;curveFitting=1;orthogonalLoop=1;jettySize=auto;html=1;entryX=0;entryY=0.203;entryDx=0;entryDy=0;entryPerimeter=0;fontFamily=Architects Daughter;fontSource=https%3A%2F%2Ffonts.googleapis.com%2Fcss%3Ffamily%3DArchitects%2BDaughter;fontSize=16;" edge="1" parent="1" target="Ikadetjm3nNki8M43ZyB-25">
          <mxGeometry relative="1" as="geometry">
            <mxPoint x="810" y="40" as="sourcePoint" />
            <mxPoint x="1070" y="62.5" as="targetPoint" />
          </mxGeometry>
        </mxCell>
        <mxCell id="Ikadetjm3nNki8M43ZyB-30" value="3.3 взять книгу" style="edgeStyle=orthogonalEdgeStyle;rounded=0;sketch=1;hachureGap=4;jiggle=2;curveFitting=1;orthogonalLoop=1;jettySize=auto;html=1;entryX=0;entryY=0.407;entryDx=0;entryDy=0;entryPerimeter=0;fontFamily=Architects Daughter;fontSource=https%3A%2F%2Ffonts.googleapis.com%2Fcss%3Ffamily%3DArchitects%2BDaughter;fontSize=16;" edge="1" parent="1" source="Ikadetjm3nNki8M43ZyB-4" target="Ikadetjm3nNki8M43ZyB-25">
          <mxGeometry relative="1" as="geometry">
            <Array as="points">
              <mxPoint x="963" y="110" />
              <mxPoint x="963" y="164" />
            </Array>
          </mxGeometry>
        </mxCell>
        <mxCell id="Ikadetjm3nNki8M43ZyB-4" value="Читатель" style="html=1;whiteSpace=wrap;sketch=1;hachureGap=4;jiggle=2;curveFitting=1;fontFamily=Architects Daughter;fontSource=https%3A%2F%2Ffonts.googleapis.com%2Fcss%3Ffamily%3DArchitects%2BDaughter;fontSize=20;" vertex="1" parent="1">
          <mxGeometry x="40" width="770" height="140" as="geometry" />
        </mxCell>
        <mxCell id="Ikadetjm3nNki8M43ZyB-8" value="Каталог" style="html=1;whiteSpace=wrap;sketch=1;hachureGap=4;jiggle=2;curveFitting=1;fontFamily=Architects Daughter;fontSource=https%3A%2F%2Ffonts.googleapis.com%2Fcss%3Ffamily%3DArchitects%2BDaughter;fontSize=20;" vertex="1" parent="1">
          <mxGeometry x="50" y="650" width="760" height="80" as="geometry" />
        </mxCell>
        <mxCell id="Ikadetjm3nNki8M43ZyB-29" value="3.2 есть ли там&lt;br&gt;искомая книга" style="edgeStyle=orthogonalEdgeStyle;rounded=0;sketch=1;hachureGap=4;jiggle=2;curveFitting=1;orthogonalLoop=1;jettySize=auto;html=1;entryX=1.003;entryY=0.6;entryDx=0;entryDy=0;entryPerimeter=0;fontFamily=Architects Daughter;fontSource=https%3A%2F%2Ffonts.googleapis.com%2Fcss%3Ffamily%3DArchitects%2BDaughter;fontSize=16;" edge="1" parent="1" source="Ikadetjm3nNki8M43ZyB-25" target="Ikadetjm3nNki8M43ZyB-4">
          <mxGeometry relative="1" as="geometry">
            <Array as="points">
              <mxPoint x="1020" y="84" />
              <mxPoint x="1020" y="84" />
            </Array>
          </mxGeometry>
        </mxCell>
        <mxCell id="Ikadetjm3nNki8M43ZyB-25" value="КнигоХранилище" style="html=1;whiteSpace=wrap;sketch=1;hachureGap=4;jiggle=2;curveFitting=1;fontFamily=Architects Daughter;fontSource=https%3A%2F%2Ffonts.googleapis.com%2Fcss%3Ffamily%3DArchitects%2BDaughter;fontSize=20;" vertex="1" parent="1">
          <mxGeometry x="1116" y="-84" width="250" height="610" as="geometry" />
        </mxCell>
      </root>
    </mxGraphModel>
  </diagram>
</mxfile>
